<svg xmlns="http://www.w3.org/2000/svg" viewBox="0 0 535.9 432">
<g>
	<path fill-rule="evenodd" clip-rule="evenodd" fill="#131313" d="M535.9,175.9L505.4,57.3l-117-32.7l-41.1,40.8L307,23.9
		L189.5,54.7l-32.4,118.1l40.4,41.6l-41.1,40.8l30.5,118.7l117,32.7l41.1-40.8l40.4,41.6l117.5-30.7l32.3-118.1L494.7,217
		L535.9,175.9z M499,165.6l-27.4,27.3l-38.9-39.8l50.3-50L499,165.6z M448,216.4l-39.5,39.2l-38.9-39.9l39.4-39.2L448,216.4z
		 M398.2,62l61.6,17.2l-50.3,50l-38.9-39.9L398.2,62z M385.9,152.7L346.5,192l-38.9-39.9l39.5-39.2L385.9,152.7z M322.7,215.3
		l-39.5,39.2l-38.7-39.8l39.4-39.2L322.7,215.3z M296.7,61.2l27,27.8l-39.5,39.1l-49.5-50.8L296.7,61.2z M194.2,163.1L194.2,163.1
		L194.2,163.1L194.2,163.1l17.1-62.2l49.5,50.8l-39.4,39.2L194.2,163.1z M193.3,265.6l27.4-27.3l38.9,39.9l-50.3,49.9L193.3,265.6z
		 M294.3,369.2L232.7,352l0,0l0,0l0,0l50.3-50l38.9,39.9L294.3,369.2z M306.6,278.5l39.5-39.2l38.9,39.9l-39.4,39.2L306.6,278.5z
		 M395.7,369.9l-27-27.8l39.4-39.2l49.5,50.8L395.7,369.9z M498.2,268.1l-17.1,62.2l-49.5-50.8l39.5-39.2L498.2,268.1z"/>
	<polygon fill-rule="evenodd" clip-rule="evenodd" fill="#131313" points="156.4,63.2 83.3,82.4 58.1,172.8 58.1,255 83.3,344.9 
		156.4,365.3 112.6,215.1 	"/>
	<polygon fill-rule="evenodd" clip-rule="evenodd" fill="#131313" points="31.5,172.8 58.5,88.8 57.5,89.1 23.5,97.8 -1.6,172.9 
		-1.6,255.1 23.6,328.2 58.5,337.9 31.5,255.2 	"/>
</g>
</svg>
